<svg xmlns="http://www.w3.org/2000/svg" width="162" height="42" viewBox="0 0 162 42">
    <path fill="#1f68c1" fill-rule="evenodd" d="M3.616 22.862V12.696h3.012c1.206 0 1.809.597 1.809 1.794v6.578c0 1.117-.603 1.715-1.809 1.794H3.616zm4.82 5.383v7.775c0 1.196-.602 1.794-1.808 1.794H3.616V26.451h3.012c1.206 0 1.809.598 1.809 1.794zm3.616-8.373v-4.186c0-4.386-1.607-6.579-4.82-6.579H0v32.295h7.231c3.214 0 4.82-2.193 4.82-6.579v-5.382c0-2.79-.803-4.386-2.41-4.785 1.607-.398 2.41-1.993 2.41-4.784zm29.51 21.53v-3.588h-6.027V27.05h6.026V23.46h-6.026V12.719h6.026V9.107H31.92v32.295h9.641zm23.244-18.54V12.696h3.013c1.205 0 1.808.597 1.808 1.794v6.578c0 1.117-.603 1.715-1.808 1.794h-3.013zm4.82 5.383v7.775c0 1.196-.602 1.794-1.807 1.794h-3.013V26.451h3.013c1.205 0 1.808.598 1.808 1.794zm3.617-8.373v-4.186c0-4.386-1.607-6.579-4.821-6.579H61.19v32.295h7.23c3.215 0 4.822-2.193 4.822-6.579v-5.382c0-2.79-.804-4.386-2.41-4.785 1.606-.398 2.41-1.993 2.41-4.784zm28.72 21.53v-3.588h-4.74V9.107h-3.616v32.295h8.356zm26.875-37.814h3.615V0h-3.615v3.588zm-8.47 0h3.615V0h-3.616V3.59zm8.461 33.03c0 1.196-.602 1.794-1.807 1.794h-1.206c-1.205 0-1.807-.598-1.807-1.795V9.107h-3.616v26.315c0 4.385 1.607 6.578 4.82 6.578h2.411c3.214 0 4.821-2.193 4.821-6.578V9.107h-3.616v27.51zM162 41.401v-3.588h-6.026V27.05H162V23.46h-6.026V12.719H162V9.107h-9.641v32.295H162z"/>
</svg>
